<svg width="183" height="53" viewBox="0 0 183 53" fill="none" xmlns="http://www.w3.org/2000/svg">
<g id="Group 590">
<rect id="Rectangle 166" x="89" y="41" width="84" height="12" rx="6" fill="#FFF1DA"/>
<rect id="Rectangle 167" x="163" width="20" height="12" rx="6" fill="#FFF1DA"/>
<rect id="Rectangle 168" y="41" width="20" height="12" rx="6" fill="#FFF1DA"/>
<g id="Travello">
<path d="M23.2523 9.0749V15.2544H15.8052V37.0014H8.04124V15.2544H0.673401V9.0749H23.2523Z" fill="black"/>
<path d="M33.8887 18.7006C34.7602 17.433 35.8165 16.4295 37.0577 15.6901C38.2989 14.9507 39.6325 14.581 41.0585 14.581V22.8599H38.8799C37.1897 22.8599 35.9354 23.19 35.1167 23.8502C34.2981 24.5104 33.8887 25.6591 33.8887 27.2964V37.0014H26.1248V14.779H33.8887V18.7006Z" fill="black"/>
<path d="M42.5743 25.8704C42.5743 23.5729 42.9836 21.5659 43.8023 19.8494C44.6473 18.1329 45.7829 16.8125 47.2089 15.8882C48.6614 14.9639 50.2722 14.5018 52.0416 14.5018C53.5732 14.5018 54.8937 14.8054 56.0028 15.4128C57.1119 16.0202 57.9702 16.8389 58.5776 17.8688V14.779H66.3415V37.0014H58.5776V33.9117C57.9702 34.9416 57.0987 35.7602 55.9632 36.3676C54.854 36.975 53.5468 37.2787 52.0416 37.2787C50.2722 37.2787 48.6614 36.8165 47.2089 35.8923C45.7829 34.968 44.6473 33.6476 43.8023 31.9311C42.9836 30.1881 42.5743 28.1679 42.5743 25.8704ZM58.5776 25.8704C58.5776 24.4444 58.1815 23.322 57.3892 22.5034C56.6234 21.6847 55.6727 21.2754 54.5371 21.2754C53.3752 21.2754 52.4113 21.6847 51.6455 22.5034C50.8796 23.2956 50.4967 24.418 50.4967 25.8704C50.4967 27.2964 50.8796 28.432 51.6455 29.2771C52.4113 30.0957 53.3752 30.505 54.5371 30.505C55.6727 30.505 56.6234 30.0957 57.3892 29.2771C58.1815 28.4584 58.5776 27.3229 58.5776 25.8704Z" fill="black"/>
<path d="M81.4214 29.6732L85.5806 14.779H93.8596L86.2144 37.0014H76.5491L68.9039 14.779H77.1829L81.4214 29.6732Z" fill="black"/>
<path d="M117.722 25.6327C117.722 26.2401 117.683 26.8475 117.604 27.4549H102.908C102.987 28.6697 103.317 29.5807 103.898 30.1881C104.505 30.7691 105.271 31.0596 106.195 31.0596C107.489 31.0596 108.414 30.4786 108.968 29.3167H117.247C116.904 30.8483 116.23 32.2215 115.227 33.4363C114.25 34.6247 113.009 35.5622 111.503 36.2488C109.998 36.9354 108.334 37.2787 106.512 37.2787C104.32 37.2787 102.366 36.8165 100.65 35.8923C98.9595 34.968 97.6259 33.6476 96.6488 31.9311C95.6981 30.2145 95.2228 28.1943 95.2228 25.8704C95.2228 23.5465 95.6981 21.5395 96.6488 19.8494C97.5995 18.1329 98.9199 16.8125 100.61 15.8882C102.327 14.9639 104.294 14.5018 106.512 14.5018C108.704 14.5018 110.645 14.9507 112.335 15.8486C114.025 16.7464 115.346 18.0404 116.296 19.7305C117.247 21.3943 117.722 23.3616 117.722 25.6327ZM109.8 23.6917C109.8 22.7411 109.483 22.0016 108.849 21.4735C108.216 20.9189 107.423 20.6416 106.473 20.6416C105.522 20.6416 104.743 20.9057 104.135 21.4339C103.528 21.9356 103.132 22.6882 102.947 23.6917H109.8Z" fill="black"/>
<path d="M128.664 7.68848V37.0014H120.9V7.68848H128.664Z" fill="black"/>
<path d="M140.849 7.68848V37.0014H133.085V7.68848H140.849Z" fill="black"/>
<path d="M155.609 37.2787C153.391 37.2787 151.397 36.8165 149.628 35.8923C147.885 34.968 146.512 33.6476 145.508 31.9311C144.505 30.2145 144.003 28.1943 144.003 25.8704C144.003 23.5729 144.505 21.5659 145.508 19.8494C146.538 18.1329 147.924 16.8125 149.667 15.8882C151.437 14.9639 153.431 14.5018 155.649 14.5018C157.867 14.5018 159.848 14.9639 161.591 15.8882C163.36 16.8125 164.746 18.1329 165.75 19.8494C166.78 21.5659 167.295 23.5729 167.295 25.8704C167.295 28.1679 166.78 30.1881 165.75 31.9311C164.746 33.6476 163.36 34.968 161.591 35.8923C159.821 36.8165 157.827 37.2787 155.609 37.2787ZM155.609 30.5446C156.692 30.5446 157.59 30.1485 158.303 29.3563C159.042 28.5376 159.412 27.3757 159.412 25.8704C159.412 24.3652 159.042 23.2164 158.303 22.4242C157.59 21.6319 156.705 21.2358 155.649 21.2358C154.592 21.2358 153.708 21.6319 152.995 22.4242C152.282 23.2164 151.925 24.3652 151.925 25.8704C151.925 27.4021 152.269 28.564 152.955 29.3563C153.642 30.1485 154.526 30.5446 155.609 30.5446Z" fill="black"/>
</g>
</g>
</svg>
